<svg width="20" height="20" viewBox="0 0 18 20" fill="none" xmlns="http://www.w3.org/2000/svg">
<g id="Location">
<path id="Fill 1" fill-rule="evenodd" clip-rule="evenodd" d="M9.05383 6.5C8.08883 6.5 7.30383 7.285 7.30383 8.251C7.30383 9.216 8.08883 10 9.05383 10C10.0188 10 10.8038 9.216 10.8038 8.251C10.8038 7.285 10.0188 6.5 9.05383 6.5ZM9.05383 11.5C7.26183 11.5 5.80383 10.043 5.80383 8.251C5.80383 6.458 7.26183 5 9.05383 5C10.8458 5 12.3038 6.458 12.3038 8.251C12.3038 10.043 10.8458 11.5 9.05383 11.5Z" fill="#0C0900"/>
<g id="Group 5">
<mask id="mask0_125_4024" style="mask-type:luminance" maskUnits="userSpaceOnUse" x="0" y="0" width="18" height="20">
<path id="Clip 4" fill-rule="evenodd" clip-rule="evenodd" d="M0.803345 0H17.3028V19.5H0.803345V0Z" fill="white"/>
</mask>
<g mask="url(#mask0_125_4024)">
<path id="Fill 3" fill-rule="evenodd" clip-rule="evenodd" d="M9.05286 1.5C5.33086 1.5 2.30286 4.557 2.30286 8.313C2.30286 13.092 7.92686 17.748 9.05286 17.996C10.1789 17.747 15.8029 13.091 15.8029 8.313C15.8029 4.557 12.7749 1.5 9.05286 1.5ZM9.05286 19.5C7.25886 19.5 0.802856 13.948 0.802856 8.313C0.802856 3.729 4.50386 0 9.05286 0C13.6019 0 17.3029 3.729 17.3029 8.313C17.3029 13.948 10.8469 19.5 9.05286 19.5Z" fill="#0C0900"/>
</g>
</g>
</g>
</svg>
