<svg width="72" height="22" viewBox="0 0 72 22" fill="none" xmlns="http://www.w3.org/2000/svg">
<g id="Group 1">
<g id="Layer 2">
<g id="Layer 1">
<g id="Group">
<path id="Vector" d="M46.4176 21.1599L48.4816 6.36624C48.4894 6.33171 48.5085 6.30076 48.5359 6.27825C48.5633 6.25574 48.5974 6.24293 48.6328 6.24185H51.7733C51.7947 6.2417 51.8159 6.24611 51.8356 6.25479C51.8552 6.26346 51.8727 6.27621 51.887 6.29217C51.9013 6.30814 51.9121 6.32696 51.9185 6.34739C51.925 6.36782 51.927 6.38939 51.9245 6.41067L51.5686 9.12062C51.5637 9.15226 51.5488 9.18153 51.5262 9.20418C51.5035 9.22684 51.4742 9.24172 51.4425 9.24666C51.4108 9.25161 51.3784 9.24636 51.3499 9.23169C51.3214 9.21702 51.2983 9.19368 51.2839 9.16504C51.2749 9.14399 51.2702 9.12132 51.2702 9.0984C51.2702 9.07549 51.2749 9.05282 51.2839 9.03176C51.7999 7.9389 52.4494 7.17478 53.2412 6.73941C54.033 6.30404 54.976 6.07303 56.0347 6.07303H56.7464C56.7678 6.07288 56.7891 6.07729 56.8087 6.08597C56.8283 6.09465 56.8458 6.10739 56.8601 6.12336C56.8744 6.13932 56.8852 6.15815 56.8917 6.17858C56.8981 6.199 56.9001 6.22057 56.8976 6.24185L56.4973 9.16504C56.4894 9.19957 56.4703 9.23052 56.4429 9.25303C56.4156 9.27554 56.3815 9.28835 56.346 9.28943H55.1717C54.1308 9.28943 53.259 9.61818 52.5472 10.2757C51.8355 10.9332 51.3729 11.9105 51.1683 13.2078L50.074 21.2043C50.0697 21.2389 50.0528 21.2706 50.0265 21.2935C50.0003 21.3165 49.9665 21.329 49.9317 21.3287H46.5599C46.5387 21.3291 46.5178 21.3247 46.4985 21.316C46.4792 21.3073 46.4621 21.2943 46.4485 21.2781C46.4349 21.262 46.425 21.243 46.4197 21.2225C46.4143 21.2021 46.4136 21.1807 46.4176 21.1599Z" fill="#0C0900"/>
<path id="Vector_2" d="M63.8635 21.6664C62.3778 21.6664 61.0878 21.3465 59.9846 20.6979C58.907 20.0652 58.0239 19.1494 57.4313 18.0501C56.8353 16.9306 56.5328 15.6778 56.5328 14.2828C56.5234 13.1796 56.7257 12.0848 57.1289 11.0576C57.5172 10.0643 58.0908 9.15379 58.8192 8.37427C59.542 7.61145 60.4061 6.9959 61.3636 6.56171C62.3603 6.12055 63.4406 5.89931 64.5307 5.9131C66.0075 5.9131 67.2708 6.21519 68.3117 6.82827C69.3176 7.40188 70.1363 8.25343 70.6693 9.28055C71.2031 10.3023 71.47 11.4574 71.47 12.7368C71.4692 13.079 71.4424 13.4205 71.3899 13.7586C71.3454 14.043 71.292 14.3273 71.2209 14.6116C71.2056 14.6688 71.1722 14.7196 71.1258 14.7565C71.0793 14.7933 71.0222 14.8141 70.9629 14.816H59.7889C59.7527 14.8148 59.717 14.8065 59.684 14.7916C59.651 14.7767 59.6212 14.7554 59.5964 14.729C59.5717 14.7026 59.5523 14.6716 59.5395 14.6377C59.5268 14.6039 59.5208 14.5678 59.522 14.5316L59.6821 12.2837C59.6888 12.2177 59.7198 12.1566 59.7692 12.1122C59.8185 12.0679 59.8826 12.0435 59.949 12.0438H68.4274C68.4826 12.0456 68.536 12.0645 68.58 12.0979C68.6241 12.1313 68.6566 12.1775 68.6732 12.2302C68.6899 12.2829 68.6897 12.3394 68.6727 12.3919C68.6558 12.4445 68.6229 12.4905 68.5786 12.5236L68.0359 12.8968C67.9932 12.927 67.9425 12.944 67.8901 12.9457C67.8378 12.9474 67.7861 12.9336 67.7415 12.9061C67.6969 12.8786 67.6614 12.8387 67.6394 12.7912C67.6174 12.7437 67.6099 12.6908 67.6178 12.6391C67.7166 12.1135 67.6922 11.5722 67.5466 11.0576C67.3689 10.4279 66.9872 9.87487 66.4613 9.4849C65.9364 9.10285 65.278 8.90737 64.504 8.90737C63.4809 8.90737 62.6625 9.15616 62.0397 9.65372C61.4169 10.1513 60.9721 10.8354 60.6785 11.6973C60.3827 12.6248 60.2385 13.5938 60.2515 14.5672C60.2515 15.3757 60.4028 16.0776 60.7141 16.6729C60.9931 17.2438 61.4443 17.713 62.0041 18.0146C62.5557 18.3256 63.2051 18.4766 63.9436 18.4766C64.682 18.4766 65.5093 18.29 66.141 17.9168C66.6781 17.6077 67.1447 17.1901 67.511 16.6907C67.5497 16.6407 67.6043 16.6054 67.6659 16.5909C67.7274 16.5763 67.7921 16.5833 67.8491 16.6107L70.2956 17.8813C70.3268 17.898 70.3543 17.9208 70.3765 17.9482C70.3988 17.9757 70.4154 18.0073 70.4253 18.0412C70.4352 18.075 70.4383 18.1106 70.4344 18.1457C70.4305 18.1808 70.4196 18.2147 70.4024 18.2456C70.0505 18.8856 69.5795 19.4526 69.0145 19.916C68.3349 20.487 67.553 20.9241 66.7104 21.2043C65.7947 21.5193 64.8319 21.6755 63.8635 21.6664Z" fill="#0C0900"/>
<path id="Vector_3" d="M23.7226 21.3198C22.7529 21.3198 21.8988 21.1599 21.1515 20.8489C20.4405 20.5702 19.8277 20.088 19.39 19.4629C18.963 18.8498 18.7495 18.1034 18.7495 17.2149C18.7495 16.3264 18.9897 15.429 19.4701 14.7449C19.9505 14.0607 20.6177 13.501 21.4718 13.0656C22.3258 12.6302 23.3045 12.337 24.4165 12.1682L29.1583 11.413C29.1986 11.4073 29.2396 11.4109 29.2783 11.4235C29.317 11.4361 29.3522 11.4574 29.3814 11.4856C29.4106 11.5139 29.4329 11.5485 29.4467 11.5867C29.4604 11.6249 29.4653 11.6658 29.4608 11.7062L29.2384 13.9363C29.2329 13.9943 29.2079 14.0486 29.1675 14.0906C29.1271 14.1325 29.0737 14.1596 29.016 14.1673L24.9414 14.887C24.3203 14.9875 23.7302 15.2275 23.2155 15.589C22.9938 15.7485 22.8146 15.9599 22.6936 16.2047C22.5727 16.4494 22.5136 16.72 22.5216 16.9928C22.5216 17.5081 22.7173 17.8991 23.0909 18.1567C23.4646 18.4144 23.9628 18.5477 24.55 18.5477C25.2516 18.5599 25.9434 18.3818 26.5517 18.0324C27.1424 17.6953 27.6477 17.2271 28.0285 16.6641C28.4072 16.0973 28.6451 15.4485 28.7224 14.7715L29.2473 11.0043C29.3185 10.5067 29.2384 10.0802 29.0071 9.74257C28.77 9.39529 28.4403 9.12133 28.0552 8.9518C27.6362 8.76159 27.1809 8.66457 26.7207 8.66748C25.9254 8.65459 25.1455 8.88732 24.4877 9.33386C23.9206 9.71217 23.4463 10.2133 23.0998 10.7999C23.0629 10.8595 23.0046 10.9027 22.9368 10.9209C22.8691 10.9391 22.7969 10.9307 22.7351 10.8976L20.333 9.5471C20.2734 9.51018 20.2296 9.45258 20.2099 9.38535C20.1902 9.31813 20.196 9.246 20.2263 9.18281C20.6018 8.49499 21.1026 7.88328 21.7031 7.37914C22.4097 6.80292 23.2102 6.35212 24.0695 6.04638C24.9925 5.72188 25.9647 5.55954 26.9431 5.56658C28.1619 5.56658 29.2473 5.80648 30.2081 6.28628C31.1689 6.76607 31.8896 7.42357 32.3878 8.25876C32.886 9.09396 33.055 10.0624 32.886 11.1642L31.5515 21.0888C31.543 21.1517 31.5124 21.2095 31.4651 21.2518C31.4178 21.2942 31.357 21.3183 31.2935 21.3198H28.3577C28.3198 21.3188 28.2826 21.31 28.2484 21.294C28.2141 21.278 28.1835 21.2551 28.1584 21.2267C28.1334 21.1984 28.1145 21.1652 28.1028 21.1293C28.0912 21.0933 28.0871 21.0553 28.0908 21.0177L28.3843 18.6454C28.3932 18.5795 28.4263 18.5192 28.4774 18.4765C28.5284 18.4338 28.5936 18.4116 28.6601 18.4144H28.8114C28.861 18.4164 28.909 18.4321 28.9502 18.4599C28.9913 18.4877 29.0239 18.5263 29.0442 18.5716C29.0645 18.6168 29.0718 18.6668 29.0653 18.7159C29.0587 18.7651 29.0386 18.8114 29.0071 18.8498C28.647 19.2973 28.2314 19.6973 27.7705 20.0404C27.2043 20.4578 26.5731 20.779 25.9022 20.9911C25.1968 21.2115 24.4617 21.3224 23.7226 21.3198Z" fill="#0C0900"/>
<path id="Vector_4" d="M37.5566 21.3198C36.5869 21.3198 35.7329 21.1599 34.9855 20.8489C34.2732 20.5725 33.6598 20.0899 33.224 19.4629C32.797 18.8498 32.5835 18.1034 32.5835 17.2149C32.5835 16.3264 32.8237 15.429 33.3041 14.7449C33.7845 14.0607 34.4518 13.501 35.3058 13.0656C36.1599 12.6302 37.1385 12.337 38.2506 12.1682L42.9924 11.413C43.0327 11.4073 43.0737 11.4109 43.1123 11.4235C43.151 11.4361 43.1863 11.4574 43.2155 11.4856C43.2446 11.5139 43.267 11.5485 43.2807 11.5867C43.2945 11.6249 43.2993 11.6658 43.2949 11.7062L43.0725 13.9363C43.0669 13.9943 43.042 14.0486 43.0016 14.0906C42.9612 14.1325 42.9078 14.1596 42.85 14.1673L38.7754 14.887C38.1543 14.9875 37.5642 15.2275 37.0495 15.589C36.8278 15.7485 36.6487 15.9599 36.5277 16.2047C36.4067 16.4494 36.3476 16.72 36.3556 16.9928C36.3556 17.5081 36.5513 17.8991 36.925 18.1567C37.2986 18.4144 37.7968 18.5477 38.384 18.5477C39.0855 18.5586 39.7769 18.3806 40.3857 18.0324C40.9765 17.6953 41.4817 17.2271 41.8625 16.6641C42.2413 16.0973 42.4792 15.4485 42.5565 14.7715L43.0813 11.0043C43.1525 10.5067 43.0724 10.0802 42.8411 9.74257C42.6041 9.39529 42.2743 9.12133 41.8892 8.9518C41.4703 8.76159 41.0149 8.66457 40.5547 8.66748C39.7569 8.65621 38.9747 8.88872 38.3128 9.33386C37.7506 9.71502 37.2797 10.2157 36.9339 10.7999C36.8969 10.8595 36.8386 10.9027 36.7709 10.9209C36.7031 10.9391 36.631 10.9307 36.5691 10.8976L34.1671 9.5471C34.1059 9.51164 34.0607 9.45405 34.0408 9.38625C34.021 9.31845 34.0279 9.24562 34.0603 9.18281C34.433 8.49308 34.9343 7.88087 35.5371 7.37914C36.2438 6.80292 37.0442 6.35212 37.9036 6.04638C38.8265 5.72188 39.7987 5.55954 40.7772 5.56658C41.996 5.56658 43.0813 5.80648 44.0422 6.28628C45.003 6.76607 45.7236 7.42357 46.2218 8.25876C46.72 9.09396 46.889 10.0624 46.72 11.1642L45.3855 21.0888C45.3771 21.1517 45.3465 21.2095 45.2992 21.2518C45.2519 21.2942 45.191 21.3183 45.1275 21.3198H42.1917C42.1539 21.3188 42.1167 21.31 42.0824 21.294C42.0481 21.278 42.0175 21.2551 41.9925 21.2267C41.9675 21.1984 41.9485 21.1652 41.9369 21.1293C41.9252 21.0933 41.9211 21.0553 41.9248 21.0177L42.2184 18.6454C42.2272 18.5795 42.2604 18.5192 42.3114 18.4765C42.3625 18.4338 42.4276 18.4116 42.4942 18.4144H42.6454C42.695 18.4164 42.7431 18.4321 42.7842 18.4599C42.8254 18.4877 42.8579 18.5263 42.8783 18.5716C42.8986 18.6168 42.9059 18.6668 42.8993 18.7159C42.8928 18.7651 42.8726 18.8114 42.8411 18.8498C42.4787 19.2952 42.0635 19.695 41.6045 20.0404C41.0384 20.4578 40.4071 20.779 39.7363 20.9911C39.0309 21.2115 38.2957 21.3224 37.5566 21.3198Z" fill="#0C0900"/>
<g id="Group_2">
<path id="Vector_5" d="M10.6181 18.3522L9.69285 18.6987L5.84068 20.1648L3.32297 21.1155C3.29033 21.1281 3.25546 21.1339 3.2205 21.1326C3.18553 21.1313 3.15119 21.1229 3.11957 21.108C3.08794 21.093 3.0597 21.0718 3.03655 21.0456C3.0134 21.0194 2.99583 20.9887 2.9849 20.9555L2.68242 20.1825C2.6697 20.1493 2.66375 20.1139 2.66494 20.0784C2.66614 20.0428 2.67444 20.0079 2.68936 19.9756C2.70428 19.9433 2.72553 19.9143 2.75184 19.8903C2.77815 19.8664 2.80899 19.8479 2.84256 19.836L4.64855 19.1519L8.34059 17.748L8.45624 17.7036L8.563 17.7658L8.70534 17.8369L8.77651 17.8724L8.85658 17.908L8.91886 17.9346L9.05231 17.9879L9.22134 18.059L9.30141 18.0857C9.42596 18.1212 9.54161 18.1656 9.66616 18.1923C9.97811 18.2736 10.2967 18.3271 10.6181 18.3522Z" fill="#0C0900"/>
<path id="Vector_6" d="M7.93133 17.366L7.5043 17.5259H7.4954L4.29267 18.7432L0.992071 20.0048C0.924752 20.0281 0.851036 20.0244 0.78636 19.9946C0.721685 19.9648 0.671068 19.9112 0.645108 19.8449L0.351524 19.063C0.338716 19.031 0.33248 18.9967 0.333183 18.9622C0.333887 18.9277 0.341518 18.8937 0.355623 18.8622C0.369727 18.8308 0.390019 18.8024 0.415294 18.7789C0.44057 18.7554 0.470314 18.7372 0.502765 18.7254L3.50088 17.5881L6.69472 16.3708L6.88154 16.2998L6.9883 16.4508H6.9972L7.06837 16.5308L7.13064 16.6196L7.2463 16.744L7.34416 16.8506C7.35996 16.8578 7.37261 16.8704 7.37975 16.8862L7.54878 17.0461C7.67333 17.1616 7.79788 17.2682 7.93133 17.366Z" fill="#0C0900"/>
<path id="Vector_7" d="M6.60579 15.8733L3.2785 17.135C3.13852 16.8224 3.01674 16.502 2.91375 16.1754C2.88933 16.0857 2.89845 15.9903 2.93938 15.9069C2.98032 15.8235 3.05027 15.7579 3.13616 15.7222L3.25181 15.6778L5.70724 14.7538C5.75456 14.7368 5.80475 14.7294 5.85495 14.7318C5.90516 14.7342 5.95439 14.7465 5.99983 14.768C6.04527 14.7895 6.08603 14.8196 6.11979 14.8568C6.15354 14.894 6.17963 14.9375 6.19655 14.9848C6.3076 15.2919 6.4445 15.5892 6.60579 15.8733Z" fill="#0C0900"/>
<path id="Vector_8" d="M19.0609 5.69986L16.5254 6.65945C16.4792 6.67646 16.4302 6.68421 16.381 6.68225C16.3319 6.68028 16.2836 6.66865 16.239 6.64801C16.1944 6.62738 16.1542 6.59814 16.1209 6.56199C16.0876 6.52583 16.0618 6.48347 16.045 6.43732C15.7683 5.6458 15.2562 4.95759 14.577 4.46483C13.7942 3.91396 12.86 3.63852 11.7658 3.63852C11.1577 3.62706 10.5541 3.7452 9.99535 3.98504C9.51251 4.18535 9.094 4.5142 8.78543 4.93574C8.48816 5.35922 8.33531 5.86703 8.3495 6.38401C8.34214 6.90756 8.52551 7.41594 8.8655 7.81451C9.21246 8.20545 9.73736 8.52532 10.4669 8.76521L13.9365 9.95581C15.4608 10.4593 16.5906 11.1553 17.3261 12.0438C18.0645 12.9323 18.4381 14.0163 18.4381 15.3135C18.4453 16.4516 18.1038 17.5646 17.4595 18.5033C16.7969 19.4826 15.8931 20.2751 14.835 20.8045C13.7408 21.382 12.4775 21.6664 11.0718 21.6664C10.0967 21.6737 9.12563 21.539 8.18937 21.2665C7.88061 21.1786 7.57755 21.0718 7.28193 20.9467C6.96915 20.8171 6.66592 20.6657 6.37449 20.4935L12.5397 18.1567L12.9045 18.0146L12.9668 17.9879C13.4634 17.7687 13.891 17.4186 14.2034 16.975C14.4865 16.5586 14.6355 16.0657 14.6304 15.5623C14.6444 15.0638 14.4697 14.5784 14.1411 14.2029C13.8208 13.8386 13.3048 13.5365 12.602 13.3144L8.93667 12.0971C7.46875 11.6173 6.38338 10.9243 5.65387 10.018C4.92436 9.11173 4.5774 8.00998 4.5774 6.71276C4.56437 5.5612 4.89583 4.43198 5.52932 3.4697C6.18653 2.49789 7.08049 1.70903 8.12709 1.17735C9.22136 0.617594 10.4669 0.333271 11.8547 0.333271C13.2426 0.333271 14.319 0.555398 15.351 0.999652C16.3416 1.41084 17.2287 2.0359 17.9488 2.82998C18.571 3.52578 19.0299 4.3514 19.2922 5.24672C19.3181 5.33746 19.3087 5.43466 19.2658 5.51874C19.2229 5.60282 19.1497 5.66754 19.0609 5.69986Z" fill="#0C0900"/>
</g>
</g>
</g>
</g>
</g>
</svg>
